<?xml version="1.0" encoding="UTF-8"?>
<svg xmlns="http://www.w3.org/2000/svg" xmlns:xlink="http://www.w3.org/1999/xlink" width="493pt" height="111pt" viewBox="0 0 493 111" version="1.1">
<g id="surface1">
<path style="fill-rule:nonzero;fill:rgb(100%,100%,100%);fill-opacity:1;stroke-width:1;stroke-linecap:round;stroke-linejoin:round;stroke:rgb(0%,0%,0%);stroke-opacity:1;stroke-miterlimit:10;" d="M 279.403125 245.8 C 296.465625 262.86875 296.465625 290.534375 279.403125 307.6 C 262.3375 324.66875 234.6625 324.66875 217.596875 307.6 C 200.534375 290.534375 200.534375 262.86875 217.596875 245.8 C 234.6625 228.734375 262.3375 228.734375 279.403125 245.8 " transform="matrix(1.25,0,0,1.25,-127.5,-290)"/>
<path style="fill-rule:nonzero;fill:rgb(69.803922%,85.098039%,100%);fill-opacity:1;stroke-width:1;stroke-linecap:round;stroke-linejoin:round;stroke:rgb(0%,0%,0%);stroke-opacity:1;stroke-miterlimit:10;" d="M 248.5 233 L 290.0625 263.19375 L 274.1875 312.05625 L 222.8125 312.05625 L 206.9375 263.19375 Z M 248.5 233 " transform="matrix(1.25,0,0,1.25,-127.5,-290)"/>
<path style="fill-rule:nonzero;fill:rgb(100%,100%,100%);fill-opacity:1;stroke-width:1;stroke-linecap:round;stroke-linejoin:round;stroke:rgb(0%,0%,0%);stroke-opacity:1;stroke-miterlimit:10;" d="M 482.2 245.8 C 499.265625 262.86875 499.265625 290.534375 482.2 307.6 C 465.13125 324.66875 437.465625 324.66875 420.4 307.6 C 403.33125 290.534375 403.33125 262.86875 420.4 245.8 C 437.465625 228.734375 465.13125 228.734375 482.2 245.8 " transform="matrix(1.25,0,0,1.25,-127.5,-290)"/>
<path style="fill-rule:nonzero;fill:rgb(69.803922%,85.098039%,100%);fill-opacity:1;stroke-width:1;stroke-linecap:round;stroke-linejoin:round;stroke:rgb(0%,0%,0%);stroke-opacity:1;stroke-miterlimit:10;" d="M 435.378125 236.9 L 467.21875 236.9 L 491.1 260.78125 L 491.1 292.621875 L 467.21875 316.5 L 435.378125 316.5 L 411.5 292.621875 L 411.5 260.78125 Z M 435.378125 236.9 " transform="matrix(1.25,0,0,1.25,-127.5,-290)"/>
<path style="fill-rule:nonzero;fill:rgb(100%,100%,100%);fill-opacity:1;stroke-width:1;stroke-linecap:round;stroke-linejoin:round;stroke:rgb(0%,0%,0%);stroke-opacity:1;stroke-miterlimit:10;" d="M 178 245.8 C 195.065625 262.86875 195.065625 290.534375 178 307.6 C 160.934375 324.66875 133.265625 324.66875 116.2 307.6 C 99.13125 290.534375 99.13125 262.86875 116.2 245.8 C 133.265625 228.734375 160.934375 228.734375 178 245.8 " transform="matrix(1.25,0,0,1.25,-127.5,-290)"/>
<path style=" stroke:none;fill-rule:nonzero;fill:rgb(69.803922%,85.098039%,100%);fill-opacity:1;" d="M 18.75 93.6875 L 94.1875 93.6875 L 94.1875 18.25 L 18.75 18.25 Z M 18.75 93.6875 "/>
<path style="fill:none;stroke-width:1;stroke-linecap:round;stroke-linejoin:round;stroke:rgb(0%,0%,0%);stroke-opacity:1;stroke-miterlimit:10;" d="M 117 246.6 L 177.35 246.6 L 177.35 306.95 L 117 306.95 Z M 117 246.6 " transform="matrix(1.25,0,0,1.25,-127.5,-290)"/>
<path style="fill-rule:nonzero;fill:rgb(100%,100%,100%);fill-opacity:1;stroke-width:1;stroke-linecap:round;stroke-linejoin:round;stroke:rgb(0%,0%,0%);stroke-opacity:1;stroke-miterlimit:10;" d="M 380.8 245.875 C 397.86875 262.940625 397.86875 290.609375 380.8 307.675 C 363.734375 324.74375 336.065625 324.74375 319 307.675 C 301.934375 290.609375 301.934375 262.940625 319 245.875 C 336.065625 228.809375 363.734375 228.809375 380.8 245.875 " transform="matrix(1.25,0,0,1.25,-127.5,-290)"/>
<path style="fill-rule:nonzero;fill:rgb(69.803922%,85.098039%,100%);fill-opacity:1;stroke-width:1;stroke-linecap:round;stroke-linejoin:round;stroke:rgb(0%,0%,0%);stroke-opacity:1;stroke-miterlimit:10;" d="M 306.2 276.7 L 328.05 239.9 L 371.75 239.9 L 393.6 276.7 L 371.75 313.5 L 328.05 313.5 Z M 306.2 276.7 " transform="matrix(1.25,0,0,1.25,-127.5,-290)"/>
<path style="fill:none;stroke-width:1;stroke-linecap:round;stroke-linejoin:round;stroke:rgb(0%,0%,0%);stroke-opacity:1;stroke-dasharray:2,2;stroke-miterlimit:10;" d="M 147.175 276.775 L 177.35 306.925 " transform="matrix(1.25,0,0,1.25,-127.5,-290)"/>
<path style="fill:none;stroke-width:1;stroke-linecap:round;stroke-linejoin:round;stroke:rgb(0%,0%,0%);stroke-opacity:1;stroke-dasharray:4,4;stroke-miterlimit:10;" d="M 177.34375 246.6 L 177.35 246.59375 " transform="matrix(1.25,0,0,1.25,-127.5,-290)"/>
<path style="fill:none;stroke-width:1;stroke-linecap:round;stroke-linejoin:round;stroke:rgb(0%,0%,0%);stroke-opacity:1;stroke-dasharray:2,2;stroke-miterlimit:10;" d="M 147.175 276.775 L 177.35 246.9875 " transform="matrix(1.25,0,0,1.25,-127.5,-290)"/>
<path style="fill:none;stroke-width:1;stroke-linecap:round;stroke-linejoin:round;stroke:rgb(0%,0%,0%);stroke-opacity:1;stroke-dasharray:2,2;stroke-miterlimit:10;" d="M 147.175 276.775 L 117 246.9125 " transform="matrix(1.25,0,0,1.25,-127.5,-290)"/>
<path style="fill:none;stroke-width:1;stroke-linecap:round;stroke-linejoin:round;stroke:rgb(0%,0%,0%);stroke-opacity:1;stroke-dasharray:2,2;stroke-miterlimit:10;" d="M 147.175 276.775 L 117 306.475 " transform="matrix(1.25,0,0,1.25,-127.5,-290)"/>
<path style="fill:none;stroke-width:1;stroke-linecap:round;stroke-linejoin:round;stroke:rgb(0%,0%,0%);stroke-opacity:1;stroke-dasharray:2,2;stroke-miterlimit:10;" d="M 248.5 276.7 L 248.409375 233.075 " transform="matrix(1.25,0,0,1.25,-127.5,-290)"/>
<path style="fill:none;stroke-width:1;stroke-linecap:round;stroke-linejoin:round;stroke:rgb(0%,0%,0%);stroke-opacity:1;stroke-dasharray:2,2;stroke-miterlimit:10;" d="M 248.5 276.7 L 288.184375 264.096875 " transform="matrix(1.25,0,0,1.25,-127.5,-290)"/>
<path style="fill:none;stroke-width:1;stroke-linecap:round;stroke-linejoin:round;stroke:rgb(0%,0%,0%);stroke-opacity:1;stroke-dasharray:2,2;stroke-miterlimit:10;" d="M 248.5 276.7 L 208.909375 264.378125 " transform="matrix(1.25,0,0,1.25,-127.5,-290)"/>
<path style="fill:none;stroke-width:1;stroke-linecap:round;stroke-linejoin:round;stroke:rgb(0%,0%,0%);stroke-opacity:1;stroke-dasharray:2,2;stroke-miterlimit:10;" d="M 273.1875 311.51875 L 248.5 276.7 " transform="matrix(1.25,0,0,1.25,-127.5,-290)"/>
<path style="fill:none;stroke-width:1;stroke-linecap:round;stroke-linejoin:round;stroke:rgb(0%,0%,0%);stroke-opacity:1;stroke-dasharray:2,2;stroke-miterlimit:10;" d="M 248.5 276.7 L 223.6 311.8 " transform="matrix(1.25,0,0,1.25,-127.5,-290)"/>
<path style="fill:none;stroke-width:1;stroke-linecap:round;stroke-linejoin:round;stroke:rgb(0%,0%,0%);stroke-opacity:1;stroke-dasharray:2,2;stroke-miterlimit:10;" d="M 349.9 276.775 L 328.2875 239.9 " transform="matrix(1.25,0,0,1.25,-127.5,-290)"/>
<path style="fill:none;stroke-width:1;stroke-linecap:round;stroke-linejoin:round;stroke:rgb(0%,0%,0%);stroke-opacity:1;stroke-dasharray:2,2;stroke-miterlimit:10;" d="M 349.9 276.775 L 371.83125 239.9 " transform="matrix(1.25,0,0,1.25,-127.5,-290)"/>
<path style="fill:none;stroke-width:1;stroke-linecap:round;stroke-linejoin:round;stroke:rgb(0%,0%,0%);stroke-opacity:1;stroke-dasharray:2,2;stroke-miterlimit:10;" d="M 349.9 276.775 L 371.3125 313.5 " transform="matrix(1.25,0,0,1.25,-127.5,-290)"/>
<path style="fill:none;stroke-width:1;stroke-linecap:round;stroke-linejoin:round;stroke:rgb(0%,0%,0%);stroke-opacity:1;stroke-dasharray:2,2;stroke-miterlimit:10;" d="M 349.9 276.775 L 328.121875 313.5 " transform="matrix(1.25,0,0,1.25,-127.5,-290)"/>
<path style="fill:none;stroke-width:1;stroke-linecap:round;stroke-linejoin:round;stroke:rgb(0%,0%,0%);stroke-opacity:1;stroke-dasharray:2,2;stroke-miterlimit:10;" d="M 349.9 276.775 L 306.2 276.746875 " transform="matrix(1.25,0,0,1.25,-127.5,-290)"/>
<path style="fill:none;stroke-width:1;stroke-linecap:round;stroke-linejoin:round;stroke:rgb(0%,0%,0%);stroke-opacity:1;stroke-dasharray:2,2;stroke-miterlimit:10;" d="M 349.9 276.775 L 393.6 276.76875 " transform="matrix(1.25,0,0,1.25,-127.5,-290)"/>
<path style="fill:none;stroke-width:1;stroke-linecap:round;stroke-linejoin:round;stroke:rgb(0%,0%,0%);stroke-opacity:1;stroke-dasharray:2,2;stroke-miterlimit:10;" d="M 451.3 276.7 L 466.98125 316.5 " transform="matrix(1.25,0,0,1.25,-127.5,-290)"/>
<path style="fill:none;stroke-width:1;stroke-linecap:round;stroke-linejoin:round;stroke:rgb(0%,0%,0%);stroke-opacity:1;stroke-dasharray:2,2;stroke-miterlimit:10;" d="M 451.3 276.7 L 491.1 260.81875 " transform="matrix(1.25,0,0,1.25,-127.5,-290)"/>
<path style="fill:none;stroke-width:1;stroke-linecap:round;stroke-linejoin:round;stroke:rgb(0%,0%,0%);stroke-opacity:1;stroke-dasharray:2,2;stroke-miterlimit:10;" d="M 451.08125 276.7 L 435.4 316.5 " transform="matrix(1.25,0,0,1.25,-127.5,-290)"/>
<path style="fill:none;stroke-width:1;stroke-linecap:round;stroke-linejoin:round;stroke:rgb(0%,0%,0%);stroke-opacity:1;stroke-dasharray:2,2;stroke-miterlimit:10;" d="M 451.3 276.7 L 466.98125 236.9 " transform="matrix(1.25,0,0,1.25,-127.5,-290)"/>
<path style="fill:none;stroke-width:1;stroke-linecap:round;stroke-linejoin:round;stroke:rgb(0%,0%,0%);stroke-opacity:1;stroke-dasharray:2,2;stroke-miterlimit:10;" d="M 451.08125 276.7 L 435.4 236.9 " transform="matrix(1.25,0,0,1.25,-127.5,-290)"/>
<path style="fill:none;stroke-width:1;stroke-linecap:round;stroke-linejoin:round;stroke:rgb(0%,0%,0%);stroke-opacity:1;stroke-dasharray:2,2;stroke-miterlimit:10;" d="M 451.3 276.7 L 491.1 292.58125 " transform="matrix(1.25,0,0,1.25,-127.5,-290)"/>
<path style="fill:none;stroke-width:1;stroke-linecap:round;stroke-linejoin:round;stroke:rgb(0%,0%,0%);stroke-opacity:1;stroke-dasharray:2,2;stroke-miterlimit:10;" d="M 451.3 276.7 L 411.5 260.81875 " transform="matrix(1.25,0,0,1.25,-127.5,-290)"/>
<path style="fill:none;stroke-width:1;stroke-linecap:round;stroke-linejoin:round;stroke:rgb(0%,0%,0%);stroke-opacity:1;stroke-dasharray:2,2;stroke-miterlimit:10;" d="M 451.3 276.7 L 411.5 292.58125 " transform="matrix(1.25,0,0,1.25,-127.5,-290)"/>
</g>
</svg>
